<?xml version="1.0" encoding="utf-8"?>
<!-- Generator: Adobe Illustrator 23.0.1, SVG Export Plug-In . SVG Version: 6.00 Build 0)  -->
<svg version="1.1" id="Layer_1" xmlns="http://www.w3.org/2000/svg" xmlns:xlink="http://www.w3.org/1999/xlink" x="0px" y="0px"
	 viewBox="0 0 60 60" style="enable-background:new 0 0 60 60;" xml:space="preserve">
<style type="text/css">
	.st0{fill:none;stroke:#000000;stroke-width:2;stroke-linecap:round;stroke-miterlimit:10;}
</style>
<g>
	<path class="st0" d="M35,39.2h17.9c3.4,0,6.1-2.7,6.1-6.1V7.1C59,3.7,56.3,1,52.9,1H16.3c-3.4,0-6.1,2.7-6.1,6.1V18"/>
	<line class="st0" x1="30" y1="31.5" x2="59" y2="31.5"/>
	<path class="st0" d="M34.6,45.3h10.7c2.5,0,4.6,2.1,4.6,4.6v0"/>
	<line class="st0" x1="42.2" y1="39.2" x2="42.2" y2="45.3"/>
	<path class="st0" d="M18,55.9H4.1c-1.7,0-3.1-1.4-3.1-3.1V25.4c0-1.7,1.4-3.1,3.1-3.1h18.3c1.7,0,3.1,1.4,3.1,3.1v12.2"/>
	<path class="st0" d="M32.6,59h-8.2c-1.1,0-2-0.9-2-2V39.6c0-1.1,0.9-2,2-2h8.2c1.1,0,2,0.9,2,2V57C34.6,58.1,33.7,59,32.6,59z"/>
</g>
</svg>
