<?xml version="1.0" encoding="utf-8"?>
<!-- Generator: Adobe Illustrator 23.0.1, SVG Export Plug-In . SVG Version: 6.00 Build 0)  -->
<svg version="1.1" id="Layer_1" xmlns="http://www.w3.org/2000/svg" xmlns:xlink="http://www.w3.org/1999/xlink" x="0px" y="0px"
	 viewBox="0 0 60 60" style="enable-background:new 0 0 60 60;" xml:space="preserve">
<style type="text/css">
	.st0{fill:none;stroke:#000000;stroke-width:2;stroke-linejoin:round;stroke-miterlimit:10;}
	.st1{fill:none;stroke:#000000;stroke-width:2;stroke-linecap:round;stroke-linejoin:round;stroke-miterlimit:10;}
</style>
<g>
	<polygon class="st0" points="59,14.7 30,28.5 1,14.7 30,1 	"/>
	<polyline class="st1" points="42.8,22.3 59,30 30,43.7 1,30 11.7,25.4 	"/>
	<polyline class="st1" points="49.8,40.7 59,45.3 30,59 1,45.3 17.1,37.6 	"/>
	<ellipse class="st0" cx="30" cy="14" rx="6.1" ry="3.8"/>
	<line class="st1" x1="30" y1="43.7" x2="30" y2="28.5"/>
	<line class="st0" x1="36.1" y1="40.7" x2="36.1" y2="25.4"/>
	<line class="st0" x1="23.9" y1="40.7" x2="23.9" y2="25.4"/>
	<line class="st1" x1="42.2" y1="37.6" x2="42.2" y2="23.9"/>
	<line class="st0" x1="17.8" y1="37.6" x2="17.8" y2="22.4"/>
	<line class="st0" x1="48.3" y1="34.6" x2="48.3" y2="25.4"/>
	<line class="st1" x1="11.7" y1="34.6" x2="11.7" y2="25.4"/>
</g>
</svg>
