<?xml version="1.0" encoding="utf-8"?>
<!-- Generator: Adobe Illustrator 23.0.1, SVG Export Plug-In . SVG Version: 6.00 Build 0)  -->
<svg version="1.1" id="Layer_1" xmlns="http://www.w3.org/2000/svg" xmlns:xlink="http://www.w3.org/1999/xlink" x="0px" y="0px"
	 viewBox="0 0 60 60" style="enable-background:new 0 0 60 60;" xml:space="preserve">
<style type="text/css">
	.st0{fill:none;stroke:#000000;stroke-width:2;stroke-linecap:round;stroke-linejoin:round;stroke-miterlimit:10;}
</style>
<g>
	<g>
		<path class="st0" d="M46.8,36v-7.5c0-5.1-4.1-9.2-9.2-9.2H10.2c-5.1,0-9.2,4.1-9.2,9.2v15.3c0,5.1,4.1,9.2,9.2,9.2V59l6.1-6.1
			h21.4c5.1,0,9.2-4.1,9.2-9.2v-3.1"/>
		<path class="st0" d="M13.2,24v7.5c0,5.1,4.1,9.2,9.2,9.2h27.5c5.1,0,9.2-4.1,9.2-9.2V16.3c0-5.1-4.1-9.2-9.2-9.2V1l-6.1,6.1H22.4
			c-5.1,0-9.2,4.1-9.2,9.2v3.1"/>
	</g>
	<line class="st0" x1="20.1" y1="39.9" x2="39.9" y2="20.1"/>
	<line class="st0" x1="29.2" y1="39.9" x2="45.3" y2="23.9"/>
	<line class="st0" x1="38.4" y1="39.9" x2="46.8" y2="31.5"/>
	<line class="st0" x1="14.7" y1="36.1" x2="30.8" y2="20.1"/>
	<line class="st0" x1="13.2" y1="28.5" x2="21.6" y2="20.1"/>
</g>
</svg>
