<?xml version="1.0" encoding="utf-8"?>
<!-- Generator: Adobe Illustrator 23.0.1, SVG Export Plug-In . SVG Version: 6.00 Build 0)  -->
<svg version="1.1" id="Layer_1" xmlns="http://www.w3.org/2000/svg" xmlns:xlink="http://www.w3.org/1999/xlink" x="0px" y="0px"
	 viewBox="0 0 60 60" style="enable-background:new 0 0 60 60;" xml:space="preserve">
<style type="text/css">
	.st0{fill:none;stroke:#000000;stroke-width:2;stroke-linecap:round;stroke-linejoin:round;stroke-miterlimit:10;}
</style>
<g>
	<path class="st0" d="M55,59H5c-2.2,0-4-1.8-4-4V5c0-2.2,1.8-4,4-4h50c2.2,0,4,1.8,4,4v50C59,57.2,57.2,59,55,59z"/>
	<polyline class="st0" points="1,14.7 25.4,14.7 31.5,8.6 54,8.6 	"/>
	<line class="st0" x1="8.6" y1="8.6" x2="8.6" y2="8.6"/>
	<line class="st0" x1="14.7" y1="8.6" x2="14.7" y2="8.6"/>
	<line class="st0" x1="20.8" y1="8.6" x2="20.8" y2="8.6"/>
	<g>
		<path class="st0" d="M20.4,33.1h-2.1c-1.1,0-2-0.9-2-2v-5.6h6.1v5.6C22.4,32.2,21.5,33.1,20.4,33.1z"/>
		<line class="st0" x1="14.7" y1="48.3" x2="23.9" y2="48.3"/>
		<line class="st0" x1="19.3" y1="33.1" x2="19.3" y2="48.3"/>
		<path class="st0" d="M25.4,59v-4.6h0c-1.7,0-3.1-1.4-3.1-3.1v-3.1"/>
		<path class="st0" d="M16.3,48.3v3.1c0,1.7-1.4,3.1-3.1,3.1h0V59"/>
		<path class="st0" d="M42.2,59V40c2.7-1.2,4.6-3.9,4.6-7s-1.9-5.8-4.6-7v3.7l0,0v3.5l-3.1,1.8l-3.1-1.8V30v-0.2v-3.7
			c-2.7,1.2-4.6,3.9-4.6,7s1.9,5.8,4.6,7v15"/>
	</g>
</g>
</svg>
