<?xml version="1.0" encoding="utf-8"?>
<!-- Generator: Adobe Illustrator 23.0.1, SVG Export Plug-In . SVG Version: 6.00 Build 0)  -->
<svg version="1.1" id="Layer_1" xmlns="http://www.w3.org/2000/svg" xmlns:xlink="http://www.w3.org/1999/xlink" x="0px" y="0px"
	 viewBox="0 0 60 60" style="enable-background:new 0 0 60 60;" xml:space="preserve">
<style type="text/css">
	.st0{fill:none;stroke:#000000;stroke-width:2;stroke-linecap:round;stroke-linejoin:round;stroke-miterlimit:10;}
</style>
<g>
	<g>
		<line class="st0" x1="1" y1="40.7" x2="34.6" y2="31.5"/>
		<line class="st0" x1="34.6" y1="55.9" x2="1" y2="46.8"/>
		<line class="st0" x1="1" y1="37.6" x2="1" y2="49.8"/>
		<line class="st0" x1="34.6" y1="28.5" x2="34.6" y2="59"/>
		<path class="st0" d="M20.5,52.1c-1,3.1-3.9,5.4-7.3,5.4c-4.2,0-7.6-3.4-7.6-7.6c0-0.6,0.1-1.2,0.2-1.7"/>
	</g>
	<path class="st0" d="M39,34.6h4.7v9.2l9.2-9.2c3.4,0,6.1-2.7,6.1-6.1V7.1C59,3.7,56.3,1,52.9,1H22.4c-3.4,0-6.1,2.7-6.1,6.1v21.4
		c0,3.4,2.7,6.1,6.1,6.1h1"/>
	<path class="st0" d="M40.1,12.5l-2.2,2.2l-2.2-2.2c-1.2-1.2-3.2-1.2-4.5,0c-1.2,1.2-1.2,3.2,0,4.5l2.2,2.2l4.5,4.5l4.5-4.5l2.2-2.2
		c1.2-1.2,1.2-3.2,0-4.5C43.4,11.3,41.4,11.3,40.1,12.5z"/>
</g>
</svg>
