<?xml version="1.0" encoding="utf-8"?>
<!-- Generator: Adobe Illustrator 23.0.0, SVG Export Plug-In . SVG Version: 6.00 Build 0)  -->
<svg version="1.1" id="Layer_1" xmlns="http://www.w3.org/2000/svg" xmlns:xlink="http://www.w3.org/1999/xlink" x="0px" y="0px"
	 viewBox="0 0 86.5 51.6" style="enable-background:new 0 0 86.5 51.6;" xml:space="preserve">
<g>
	<g>
		<path d="M0.2,35.9V16.8c0-0.4,0.3-0.7,0.8-0.7h9.1c2,0,3.5,0.4,4.6,1.3c1.1,0.9,1.6,2.2,1.6,3.8v1.3c0,1.8-1,3-3,3.5
			c1,0.1,1.8,0.5,2.4,1c0.6,0.6,0.9,1.4,0.9,2.4v1.9c0,1.7-0.5,2.9-1.6,3.8s-2.6,1.3-4.6,1.3H1C0.5,36.5,0.2,36.3,0.2,35.9z
			 M5.5,24.4h3.9c0.8,0,1.4-0.1,1.8-0.4c0.4-0.3,0.6-0.8,0.6-1.4v-1.2c0-0.7-0.2-1.1-0.5-1.4c-0.4-0.3-1-0.4-1.8-0.4H5.5
			c-0.3,0-0.4,0.1-0.4,0.4v4.2C5.1,24.3,5.2,24.4,5.5,24.4z M5.5,33.2h4.3c0.8,0,1.4-0.1,1.8-0.4s0.5-0.8,0.5-1.4v-1.8
			c0-0.7-0.2-1.1-0.6-1.4c-0.4-0.3-1-0.4-1.9-0.4H5.5c-0.3,0-0.4,0.1-0.4,0.3v4.8C5.1,33,5.2,33.2,5.5,33.2z"/>
		<path d="M23.9,36.5h-3.7c-0.5,0-0.6-0.2-0.5-0.7l6-19.1c0.2-0.4,0.6-0.7,1.1-0.7H32c0.6,0,1,0.2,1.1,0.7l6,19.1
			c0.2,0.4,0,0.7-0.5,0.7h-3.7c-0.3,0-0.5,0-0.6-0.1c-0.1-0.1-0.2-0.3-0.2-0.5l-1.1-3.5h-7.4l-1.1,3.5c0,0.2-0.1,0.4-0.2,0.5
			C24.4,36.5,24.2,36.5,23.9,36.5z M29.4,20l-2.7,9.2h5.6L29.6,20L29.4,20L29.4,20z"/>
		<path d="M45.1,36.5h-3.7c-0.5,0-0.6-0.2-0.5-0.7l6-19.1c0.2-0.4,0.6-0.7,1.1-0.7h5.1c0.6,0,1,0.2,1.1,0.7l6,19.1
			c0.2,0.4,0,0.7-0.5,0.7h-3.7c-0.3,0-0.5,0-0.6-0.1c-0.1-0.1-0.2-0.3-0.2-0.5l-1.1-3.5H47l-1.1,3.5c0,0.2-0.1,0.4-0.2,0.5
			C45.6,36.5,45.4,36.5,45.1,36.5z M50.7,20l-2.7,9.2h5.6L50.8,20L50.7,20L50.7,20z"/>
		<path d="M80,16.1h5.6c0.5,0,0.8,0.2,0.8,0.7v19.1c0,0.4-0.3,0.7-0.8,0.7h-3.1c-0.5,0-0.8-0.2-0.8-0.7v-15h-0.2l-3.9,10.6
			c-0.2,0.4-0.5,0.6-1,0.6h-3.2c-0.5,0-0.8-0.2-1-0.6l-4-10.7h-0.2v15.1c0,0.2,0,0.4-0.2,0.5c-0.1,0.1-0.3,0.1-0.7,0.1h-3.1
			c-0.5,0-0.8-0.2-0.8-0.7V16.8c0-0.4,0.3-0.7,0.8-0.7h5.7c0.4,0,0.6,0.1,0.7,0.4l4,11.2h0.2l4.1-11.2C79.4,16.3,79.6,16.1,80,16.1z
			"/>
	</g>
	<g>
		<path d="M0,6.9V6.4c0-0.1,0-0.1,0.2-0.1h0.4c0.1,0,0.2,0,0.2,0.1v0.5c0,0.9,0.5,1.4,1.3,1.4h1.4c0.9,0,1.3-0.5,1.3-1.4V6.3
			c0-0.4-0.2-0.7-0.5-1S3.6,5,3.2,4.9S2.2,4.6,1.7,4.5C1.3,4.4,0.9,4.2,0.5,3.9C0.2,3.6,0,3.2,0,2.7V2c0-0.6,0.2-1.1,0.5-1.4
			C0.9,0.2,1.4,0,2,0h1.6C4.2,0,4.7,0.2,5,0.5C5.4,0.9,5.6,1.4,5.6,2v0.4c0,0.1,0,0.1-0.2,0.1H5c-0.1,0-0.2,0-0.2-0.1V2
			c0-0.9-0.5-1.4-1.3-1.4H2.1C1.2,0.6,0.8,1.1,0.8,2v0.7c0,0.6,0.6,1.1,1.7,1.3c0.5,0.1,0.9,0.2,1.4,0.3C4.3,4.5,4.8,4.7,5.1,5
			s0.5,0.7,0.5,1.3v0.7c0,0.6-0.2,1.1-0.5,1.4C4.7,8.7,4.2,8.9,3.6,8.9H2c-0.6,0-1.1-0.2-1.4-0.5C0.2,8,0,7.6,0,6.9z"/>
		<path d="M19.6,8.9h-0.4c-0.1,0-0.2-0.1-0.2-0.2v-8c0-0.1,0-0.1-0.1-0.1h-2c-0.1,0-0.2,0-0.2-0.1V0.2c0-0.1,0.1-0.1,0.2-0.1h5
			C22,0,22,0.1,22,0.2v0.3c0,0.1,0,0.1-0.2,0.1h-2c-0.1,0-0.1,0-0.1,0.1v8C19.7,8.9,19.7,8.9,19.6,8.9z"/>
		<path d="M38,0h0.4c0.1,0,0.2,0,0.2,0.1v6.8c0,0.6-0.2,1.1-0.5,1.4c-0.3,0.4-0.8,0.5-1.4,0.5h-1.5c-0.6,0-1.1-0.2-1.4-0.5
			c-0.3-0.4-0.5-0.8-0.5-1.4V0.2c0-0.1,0-0.2,0.1-0.2h0.4c0.1,0,0.2,0,0.2,0.2v6.7c0,0.4,0.1,0.8,0.3,1c0.2,0.2,0.5,0.4,1,0.4h1.4
			c0.4,0,0.8-0.1,1-0.4s0.3-0.6,0.3-1V0.2C37.9,0.1,37.9,0,38,0z"/>
		<path d="M50.6,8.7V0.2c0-0.1,0-0.2,0.1-0.2h3.4c0.6,0,1.1,0.2,1.4,0.5c0.3,0.4,0.5,0.8,0.5,1.4v5c0,0.6-0.2,1.1-0.5,1.4
			c-0.3,0.4-0.8,0.5-1.4,0.5h-3.4C50.7,8.9,50.6,8.9,50.6,8.7z M51.4,8.3h2.7c0.4,0,0.8-0.1,1-0.4c0.2-0.2,0.3-0.6,0.3-1V2
			c0-0.4-0.1-0.8-0.3-1c-0.2-0.2-0.5-0.4-1-0.4h-2.7c-0.1,0-0.1,0-0.1,0.1v7.4C51.3,8.2,51.3,8.3,51.4,8.3z"/>
		<path d="M68.8,0.2v8.6c0,0.1,0,0.2-0.2,0.2h-0.4c-0.1,0-0.1-0.1-0.1-0.2V0.2c0-0.1,0-0.2,0.1-0.2h0.4C68.8,0,68.8,0.1,68.8,0.2z"
			/>
		<path d="M84.5,8.9h-1.7c-0.6,0-1.1-0.2-1.4-0.5c-0.3-0.4-0.5-0.8-0.5-1.4V2c0-0.6,0.2-1.1,0.5-1.4C81.8,0.2,82.2,0,82.8,0h1.7
			c0.6,0,1.1,0.2,1.4,0.5c0.3,0.4,0.5,0.8,0.5,1.4v5c0,0.6-0.2,1.1-0.5,1.4C85.6,8.7,85.1,8.9,84.5,8.9z M82.9,8.3h1.6
			c0.4,0,0.8-0.1,1-0.4c0.2-0.2,0.3-0.6,0.3-1V2c0-0.4-0.1-0.8-0.3-1c-0.2-0.2-0.5-0.4-1-0.4h-1.6c-0.4,0-0.8,0.1-1,0.4
			s-0.3,0.6-0.3,1v4.9c0,0.4,0.1,0.8,0.3,1C82.1,8.2,82.4,8.3,82.9,8.3z"/>
	</g>
	<rect y="45.5" width="86.5" height="6.2"/>
</g>
</svg>
